<?xml version="1.0" encoding="UTF-8" standalone="no"?>
<!-- Created with Inkscape (http://www.inkscape.org/) -->

<svg
   xmlns:dc="http://purl.org/dc/elements/1.1/"
   xmlns:cc="http://creativecommons.org/ns#"
   xmlns:rdf="http://www.w3.org/1999/02/22-rdf-syntax-ns#"
   xmlns:svg="http://www.w3.org/2000/svg"
   xmlns="http://www.w3.org/2000/svg"
   xmlns:sodipodi="http://sodipodi.sourceforge.net/DTD/sodipodi-0.dtd"
   xmlns:inkscape="http://www.inkscape.org/namespaces/inkscape"
   version="1.1"
   id="svg901"
   width="61440"
   height="61440"
   viewBox="0 0 61440 61440"
   sodipodi:docname="OSA-LOGO.svg"
   inkscape:version="0.92.4 5da689c313, 2019-01-14">
  <metadata
     id="metadata907">
    <rdf:RDF>
      <cc:Work
         rdf:about="">
        <dc:format>image/svg+xml</dc:format>
        <dc:type
           rdf:resource="http://purl.org/dc/dcmitype/StillImage" />
        <dc:title></dc:title>
      </cc:Work>
    </rdf:RDF>
  </metadata>
  <defs
     id="defs905" />
  <sodipodi:namedview
     pagecolor="#ffffff"
     bordercolor="#666666"
     borderopacity="1"
     objecttolerance="10"
     gridtolerance="10"
     guidetolerance="10"
     inkscape:pageopacity="0"
     inkscape:pageshadow="2"
     inkscape:window-width="1920"
     inkscape:window-height="991"
     id="namedview903"
     showgrid="false"
     inkscape:zoom="0.01"
     inkscape:cx="15409.641"
     inkscape:cy="37269.019"
     inkscape:window-x="0"
     inkscape:window-y="34"
     inkscape:window-maximized="1"
     inkscape:current-layer="svg901" />
  <path
     style="opacity:1;fill:#000000;fill-opacity:1;stroke:none;stroke-width:344.56066895;stroke-linecap:round;stroke-linejoin:round;stroke-miterlimit:4;stroke-dasharray:none;stroke-opacity:1;paint-order:stroke fill markers"
     d="M 25560 8096 C 24331.517 8096 23243.526 8395.0254 22374.857 8989.1406 C 21506.189 9583.2559 20741.49 11084.675 20741.49 11924.881 C 20741.49 12268.805 20732.878 12677.418 20791.574 13045.977 L 19086.227 16445.381 L 30445.189 16411.439 C 30688.351 16045.461 32905.192 11876.47 32758.678 11769.506 C 32424.775 11755.882 30486.939 13671.211 30330.398 13239.062 L 30321.605 12996.023 C 30344.532 12856.609 30354.815 12704.466 30355.883 12534.352 C 30367.196 10732.481 29756.95 9803.0047 28933.594 9147.5332 C 28030.984 8428.9672 26788.483 8096 25560 8096 z "
     id="path1003" />
  <g
     inkscape:groupmode="layer"
     id="layer1"
     inkscape:label="vector">
    <path
       style="opacity:1;fill:#017b88;fill-opacity:1;stroke:#5b9ba4;stroke-width:325.03930664;stroke-linejoin:round;stroke-miterlimit:4;stroke-dasharray:none;stroke-opacity:1;paint-order:stroke fill markers"
       d="m 46253.936,16515.945 -14840.608,70.711 -8420.205,20442.588 8649.906,86.283 -3146.627,7672.112 -8663.756,-85.383 -2717.519,6597.598 14919.6,48.687 4440.787,-11518.514 3794.443,-9050.968 h -8744.189 l 3146.625,-8061.02 h 8591.345 l 3252.692,8061.02 3783.021,9121.679 -8843.74,-45.236 -2359.818,5984.934 h 13607.722 l 2203.17,5582.744 5545.352,18.095 z"
       id="path953"
       inkscape:connector-curvature="0" />
    <path
       style="opacity:1;fill:#5ec2d9;fill-opacity:1;stroke:#5b9ba4;stroke-width:325.03930664;stroke-linejoin:round;stroke-miterlimit:4;stroke-dasharray:none;stroke-opacity:1;paint-order:stroke fill markers"
       d="M 17209.117,16586.656 2910.916,51299.854 H 17115.127 L 31413.328,16586.656 Z m 1747.567,6406.596 h 5200 l -9063.368,21650 h -5200 z"
       id="rect950"
       inkscape:connector-curvature="0" />
  </g>
  <path
     style="fill:none;stroke:#fbfbfb;stroke-width:344.56063843;stroke-linecap:round;stroke-linejoin:miter;stroke-miterlimit:4;stroke-dasharray:none;stroke-opacity:1"
     d="m 22518.75,11808.75 c -6.859,-735.879 1081.576,-730.323 1068.75,25"
     id="path980"
     inkscape:connector-curvature="0"
     sodipodi:nodetypes="cc" />
  <circle
     style="opacity:1;fill:#ffffff;fill-opacity:1;stroke:none;stroke-width:344.56066895;stroke-linecap:round;stroke-linejoin:round;stroke-miterlimit:4;stroke-dasharray:none;stroke-opacity:1;paint-order:stroke fill markers"
     id="path982"
     cx="27823.086"
     cy="11580.128"
     r="730.2641" />
  <path
     style="opacity:1;fill:#ffffff;fill-opacity:1;stroke:none;stroke-width:344.56063843;stroke-linecap:round;stroke-linejoin:round;stroke-miterlimit:4;stroke-dasharray:none;stroke-opacity:1;paint-order:stroke fill markers"
     d="m 25545.35,13260.974 c 914.897,136.47 2155.374,469.561 2038.824,704.527 16.102,79.506 -1339.298,1355.789 -2032.27,1374.209 -646.804,-9.127 -2044.398,-1274.967 -2010.54,-1360.724 -141.014,-239.338 1209.5,-578.262 2003.986,-718.012 z"
     id="rect993"
     inkscape:connector-curvature="0"
     sodipodi:nodetypes="ccccc" />
  <path
     style="opacity:1;fill:#ffffff;fill-opacity:1;stroke:none;stroke-width:344.56063843;stroke-linecap:round;stroke-linejoin:round;stroke-miterlimit:4;stroke-dasharray:none;stroke-opacity:1;paint-order:stroke fill markers"
     d="m 22568,14680 c 371.303,-351.434 2479.373,1186.15 2968,1256 l 16,480 -3256,-8 c 47.952,-546.773 -290.233,-1394.196 272,-1728 z"
     id="rect996"
     inkscape:connector-curvature="0"
     sodipodi:nodetypes="ccccc" />
  <path
     sodipodi:nodetypes="ccccc"
     inkscape:connector-curvature="0"
     id="path1001"
     d="M 28594.51,14685.657 C 28155.324,14390.791 26024.627,15866.15 25536,15936 l -16,480 3284.284,-8 c -47.952,-546.773 352.459,-1388.539 -209.774,-1722.343 z"
     style="opacity:1;fill:#ffffff;fill-opacity:1;stroke:none;stroke-width:344.56063843;stroke-linecap:round;stroke-linejoin:round;stroke-miterlimit:4;stroke-dasharray:none;stroke-opacity:1;paint-order:stroke fill markers" />
</svg>
